<svg width="180" height="180" xmlns="http://www.w3.org/2000/svg">
  <rect x="20" y="20" width="40" height="40" fill="white" stroke="black" stroke-width="2"/>
  <rect x="70" y="20" width="40" height="40" fill="white" stroke="black" stroke-width="2"/>
  <rect x="120" y="20" width="40" height="40" fill="white" stroke="black" stroke-width="2"/>
  <rect x="20" y="70" width="40" height="40" fill="white" stroke="black" stroke-width="2"/>
  <rect x="70" y="70" width="40" height="40" fill="white" stroke="black" stroke-width="2"/>
  <rect x="120" y="70" width="40" height="40" fill="white" stroke="black" stroke-width="2"/>
  <rect x="20" y="120" width="40" height="40" fill="white" stroke="black" stroke-width="2"/>
  <rect x="70" y="120" width="40" height="40" fill="white" stroke="black" stroke-width="2"/>
  <rect x="120" y="120" width="40" height="40" fill="lightgray" stroke="black" stroke-width="2"/>
  <circle cx="40" cy="40" r="8" fill="black"/>
  <circle cx="90" cy="40" r="8" fill="black"/>
  <circle cx="140" cy="40" r="8" fill="black"/>
  <circle cx="40" cy="90" r="8" fill="black"/>
  <circle cx="90" cy="90" r="8" fill="black"/>
  <circle cx="140" cy="90" r="8" fill="black"/>
  <circle cx="40" cy="140" r="8" fill="black"/>
  <circle cx="90" cy="140" r="8" fill="black"/>
  <text x="135" y="145" font-size="20">?</text>
</svg>